<?xml version="1.0" encoding="UTF-8" standalone="no"?>
<!DOCTYPE svg PUBLIC "-//W3C//DTD SVG 1.0//EN" "http://www.w3.org/TR/2001/PR-SVG-20010719/DTD/svg10.dtd">
<svg width="37cm" height="41cm" viewBox="392 98 736 803" xmlns="http://www.w3.org/2000/svg" xmlns:xlink="http://www.w3.org/1999/xlink">
  <g>
    <rect style="fill: #ffffff" x="420" y="100" width="161" height="80"/>
    <rect style="fill: none; fill-opacity:0; stroke-width: 2; stroke: #000000" x="420" y="100" width="161" height="80"/>
    <text font-size="20.32" style="fill: #000000;text-anchor:middle;font-family:sans-serif;font-style:normal;font-weight:700" x="500.5" y="149.05">
      <tspan x="500.5" y="149.05">SOURCE S1</tspan>
    </text>
  </g>
  <g>
    <rect style="fill: #ffffff" x="680" y="100" width="161.4" height="80"/>
    <rect style="fill: none; fill-opacity:0; stroke-width: 2; stroke: #000000" x="680" y="100" width="161.4" height="80"/>
    <text font-size="20.32" style="fill: #000000;text-anchor:middle;font-family:sans-serif;font-style:normal;font-weight:700" x="760.7" y="149.05">
      <tspan x="760.7" y="149.05">SOURCE S2</tspan>
    </text>
  </g>
  <g>
    <rect style="fill: #ffffff" x="940" y="100" width="160" height="78.6"/>
    <rect style="fill: none; fill-opacity:0; stroke-width: 2; stroke: #000000" x="940" y="100" width="160" height="78.6"/>
    <text font-size="20.32" style="fill: #000000;text-anchor:middle;font-family:sans-serif;font-style:normal;font-weight:700" x="1020" y="148.35">
      <tspan x="1020" y="148.35">SOURCE S3</tspan>
    </text>
  </g>
  <g>
    <rect style="fill: #ffffff" x="400" y="220" width="200" height="40"/>
    <rect style="fill: none; fill-opacity:0; stroke-width: 2; stroke: #000000" x="400" y="220" width="200" height="40"/>
    <text font-size="12.8" style="fill: #000000;text-anchor:middle;font-family:sans-serif;font-style:normal;font-weight:700" x="500" y="245.7">
      <tspan x="500" y="245.7">SOURCE ENDPOINT SE1</tspan>
    </text>
  </g>
  <g>
    <rect style="fill: #ffffff" x="660" y="220" width="200" height="40.6"/>
    <rect style="fill: none; fill-opacity:0; stroke-width: 2; stroke: #000000" x="660" y="220" width="200" height="40.6"/>
    <text font-size="12.8" style="fill: #000000;text-anchor:middle;font-family:sans-serif;font-style:normal;font-weight:700" x="760" y="246">
      <tspan x="760" y="246">SOURCE ENDPOINT SE2</tspan>
    </text>
  </g>
  <g>
    <rect style="fill: #ffffff" x="920" y="220.9" width="200" height="38"/>
    <rect style="fill: none; fill-opacity:0; stroke-width: 2; stroke: #000000" x="920" y="220.9" width="200" height="38"/>
    <text font-size="12.8" style="fill: #000000;text-anchor:middle;font-family:sans-serif;font-style:normal;font-weight:700" x="1020" y="245.6">
      <tspan x="1020" y="245.6">SOURCE ENDPOINT SE3</tspan>
    </text>
  </g>
  <g>
    <path style="fill: #ffffff" d="M 450 394.667 C 470.4,383.667 480.6,380 501,380 C 521.4,380 531.6,383.667 552,394.667 L 552,453.333 C 531.6,464.333 521.4,468 501,468 C 480.6,468 470.4,464.333 450,453.333 L 450,394.667z"/>
    <path style="fill: none; fill-opacity:0; stroke-width: 2; stroke: #000000" d="M 450 394.667 C 470.4,383.667 480.6,380 501,380 C 521.4,380 531.6,383.667 552,394.667 L 552,453.333 C 531.6,464.333 521.4,468 501,468 C 480.6,468 470.4,464.333 450,453.333 L 450,394.667"/>
    <path style="fill: none; fill-opacity:0; stroke-width: 2; stroke: #000000" d="M 450 394.667 C 470.4,405.667 480.6,409.333 501,409.333 C 521.4,409.333 531.6,405.667 552,394.667"/>
    <text font-size="12.8" style="fill: #000000;text-anchor:middle;font-family:sans-serif;font-style:normal;font-weight:700" x="501" y="429.733">
      <tspan x="501" y="429.733">KAFKA TOPIC</tspan>
      <tspan x="501" y="445.733">S1</tspan>
    </text>
  </g>
  <g>
    <path style="fill: #ffffff" d="M 708.15 397.967 C 730.15,386.967 741.15,383.3 763.15,383.3 C 785.15,383.3 796.15,386.967 818.15,397.967 L 818.15,456.633 C 796.15,467.633 785.15,471.3 763.15,471.3 C 741.15,471.3 730.15,467.633 708.15,456.633 L 708.15,397.967z"/>
    <path style="fill: none; fill-opacity:0; stroke-width: 2; stroke: #000000" d="M 708.15 397.967 C 730.15,386.967 741.15,383.3 763.15,383.3 C 785.15,383.3 796.15,386.967 818.15,397.967 L 818.15,456.633 C 796.15,467.633 785.15,471.3 763.15,471.3 C 741.15,471.3 730.15,467.633 708.15,456.633 L 708.15,397.967"/>
    <path style="fill: none; fill-opacity:0; stroke-width: 2; stroke: #000000" d="M 708.15 397.967 C 730.15,408.967 741.15,412.633 763.15,412.633 C 785.15,412.633 796.15,408.967 818.15,397.967"/>
    <text font-size="12.8" style="fill: #000000;text-anchor:middle;font-family:sans-serif;font-style:normal;font-weight:700" x="763.15" y="433.033">
      <tspan x="763.15" y="433.033">KAFKA TOPIC</tspan>
      <tspan x="763.15" y="449.033"> S2</tspan>
    </text>
  </g>
  <g>
    <path style="fill: #ffffff" d="M 970.3 406.267 C 990.7,395.267 1000.9,391.6 1021.3,391.6 C 1041.7,391.6 1051.9,395.267 1072.3,406.267 L 1072.3,464.933 C 1051.9,475.933 1041.7,479.6 1021.3,479.6 C 1000.9,479.6 990.7,475.933 970.3,464.933 L 970.3,406.267z"/>
    <path style="fill: none; fill-opacity:0; stroke-width: 2; stroke: #000000" d="M 970.3 406.267 C 990.7,395.267 1000.9,391.6 1021.3,391.6 C 1041.7,391.6 1051.9,395.267 1072.3,406.267 L 1072.3,464.933 C 1051.9,475.933 1041.7,479.6 1021.3,479.6 C 1000.9,479.6 990.7,475.933 970.3,464.933 L 970.3,406.267"/>
    <path style="fill: none; fill-opacity:0; stroke-width: 2; stroke: #000000" d="M 970.3 406.267 C 990.7,417.267 1000.9,420.933 1021.3,420.933 C 1041.7,420.933 1051.9,417.267 1072.3,406.267"/>
    <text font-size="12.8" style="fill: #000000;text-anchor:middle;font-family:sans-serif;font-style:normal;font-weight:700" x="1021.3" y="441.333">
      <tspan x="1021.3" y="441.333">KAFKA TOPIC</tspan>
      <tspan x="1021.3" y="457.333">S3</tspan>
    </text>
  </g>
  <g>
    <line style="fill: none; fill-opacity:0; stroke-width: 2; stroke: #000000" x1="500.378" y1="189.735" x2="500.122" y2="210.265"/>
    <polygon style="fill: #000000" points="500.472,182.236 505.347,192.298 500.378,189.735 495.347,192.173 "/>
    <polygon style="fill: none; fill-opacity:0; stroke-width: 2; stroke: #000000" points="500.472,182.236 505.347,192.298 500.378,189.735 495.347,192.173 "/>
    <polygon style="fill: #000000" points="500.028,217.764 495.153,207.702 500.122,210.265 505.153,207.827 "/>
    <polygon style="fill: none; fill-opacity:0; stroke-width: 2; stroke: #000000" points="500.028,217.764 495.153,207.702 500.122,210.265 505.153,207.827 "/>
  </g>
  <g>
    <line style="fill: none; fill-opacity:0; stroke-width: 2; stroke: #000000" x1="760.587" y1="189.735" x2="760.36" y2="209.306"/>
    <polygon style="fill: #000000" points="760.674,182.236 765.558,192.293 760.587,189.735 755.558,192.177 "/>
    <polygon style="fill: none; fill-opacity:0; stroke-width: 2; stroke: #000000" points="760.674,182.236 765.558,192.293 760.587,189.735 755.558,192.177 "/>
    <polygon style="fill: #000000" points="760.273,216.806 755.389,206.749 760.36,209.306 765.388,206.865 "/>
    <polygon style="fill: none; fill-opacity:0; stroke-width: 2; stroke: #000000" points="760.273,216.806 755.389,206.749 760.36,209.306 765.388,206.865 "/>
  </g>
  <g>
    <line style="fill: none; fill-opacity:0; stroke-width: 2; stroke: #000000" x1="1020" y1="188.336" x2="1020" y2="211.164"/>
    <polygon style="fill: #000000" points="1020,180.836 1025,190.836 1020,188.336 1015,190.836 "/>
    <polygon style="fill: none; fill-opacity:0; stroke-width: 2; stroke: #000000" points="1020,180.836 1025,190.836 1020,188.336 1015,190.836 "/>
    <polygon style="fill: #000000" points="1020,218.664 1015,208.664 1020,211.164 1025,208.664 "/>
    <polygon style="fill: none; fill-opacity:0; stroke-width: 2; stroke: #000000" points="1020,218.664 1015,208.664 1020,211.164 1025,208.664 "/>
  </g>
  <g>
    <rect style="fill: #ffffff" x="400" y="300" width="200.95" height="38"/>
    <rect style="fill: none; fill-opacity:0; stroke-width: 2; stroke: #000000" x="400" y="300" width="200.95" height="38"/>
    <text font-size="12.8" style="fill: #000000;text-anchor:middle;font-family:sans-serif;font-style:normal;font-weight:700" x="500.475" y="324.7">
      <tspan x="500.475" y="324.7">KAFKA PRODUCER KP-S1</tspan>
    </text>
  </g>
  <g>
    <rect style="fill: #ffffff" x="661.474" y="301.9" width="200.95" height="38"/>
    <rect style="fill: none; fill-opacity:0; stroke-width: 2; stroke: #000000" x="661.474" y="301.9" width="200.95" height="38"/>
    <text font-size="12.8" style="fill: #000000;text-anchor:middle;font-family:sans-serif;font-style:normal;font-weight:700" x="761.949" y="326.6">
      <tspan x="761.949" y="326.6">KAFKA PRODUCER KP-S2</tspan>
    </text>
  </g>
  <g>
    <rect style="fill: #ffffff" x="920" y="300" width="200.95" height="40"/>
    <rect style="fill: none; fill-opacity:0; stroke-width: 2; stroke: #000000" x="920" y="300" width="200.95" height="40"/>
    <text font-size="12.8" style="fill: #000000;text-anchor:middle;font-family:sans-serif;font-style:normal;font-weight:700" x="1020.48" y="325.7">
      <tspan x="1020.48" y="325.7">KAFKA PRODUCER KP-S3</tspan>
    </text>
  </g>
  <g>
    <line style="fill: none; fill-opacity:0; stroke-width: 2; stroke: #000000" x1="500.476" y1="338" x2="500.879" y2="370.265"/>
    <polygon style="fill: #000000" points="500.972,377.764 495.848,367.827 500.879,370.265 505.847,367.703 "/>
    <polygon style="fill: none; fill-opacity:0; stroke-width: 2; stroke: #000000" points="500.972,377.764 495.848,367.827 500.879,370.265 505.847,367.703 "/>
  </g>
  <g>
    <line style="fill: none; fill-opacity:0; stroke-width: 2; stroke: #000000" x1="761.95" y1="339.9" x2="762.881" y2="373.568"/>
    <polygon style="fill: #000000" points="763.088,381.065 757.814,371.207 762.881,373.568 767.81,370.93 "/>
    <polygon style="fill: none; fill-opacity:0; stroke-width: 2; stroke: #000000" points="763.088,381.065 757.814,371.207 762.881,373.568 767.81,370.93 "/>
  </g>
  <g>
    <line style="fill: none; fill-opacity:0; stroke-width: 2; stroke: #000000" x1="1020.48" y1="340" x2="1021.14" y2="381.865"/>
    <polygon style="fill: #000000" points="1021.26,389.364 1016.11,379.445 1021.14,381.865 1026.1,379.286 "/>
    <polygon style="fill: none; fill-opacity:0; stroke-width: 2; stroke: #000000" points="1021.26,389.364 1016.11,379.445 1021.14,381.865 1026.1,379.286 "/>
  </g>
  <g>
    <line style="fill: none; fill-opacity:0; stroke-width: 2; stroke: #000000" x1="500" y1="260" x2="500.236" y2="289.264"/>
    <polygon style="fill: #000000" points="500.296,296.764 495.216,286.804 500.236,289.264 505.215,286.724 "/>
    <polygon style="fill: none; fill-opacity:0; stroke-width: 2; stroke: #000000" points="500.296,296.764 495.216,286.804 500.236,289.264 505.215,286.724 "/>
  </g>
  <g>
    <line style="fill: none; fill-opacity:0; stroke-width: 2; stroke: #000000" x1="760" y1="260.6" x2="761.491" y2="292.175"/>
    <polygon style="fill: #000000" points="761.845,299.666 756.378,289.913 761.491,292.175 766.367,289.442 "/>
    <polygon style="fill: none; fill-opacity:0; stroke-width: 2; stroke: #000000" points="761.845,299.666 756.378,289.913 761.491,292.175 766.367,289.442 "/>
  </g>
  <g>
    <line style="fill: none; fill-opacity:0; stroke-width: 2; stroke: #000000" x1="1020" y1="258.9" x2="1020.36" y2="290.265"/>
    <polygon style="fill: #000000" points="1020.45,297.764 1015.33,287.823 1020.36,290.265 1025.33,287.707 "/>
    <polygon style="fill: none; fill-opacity:0; stroke-width: 2; stroke: #000000" points="1020.45,297.764 1015.33,287.823 1020.36,290.265 1025.33,287.707 "/>
  </g>
  <g>
    <line style="fill: none; fill-opacity:0; stroke-width: 2; stroke: #000000" x1="763" y1="540" x2="510.388" y2="470.58"/>
    <polygon style="fill: #000000" points="503.156,468.593 514.124,466.421 510.388,470.58 511.474,476.064 "/>
    <polygon style="fill: none; fill-opacity:0; stroke-width: 2; stroke: #000000" points="503.156,468.593 514.124,466.421 510.388,470.58 511.474,476.064 "/>
  </g>
  <g>
    <line style="fill: none; fill-opacity:0; stroke-width: 2; stroke: #000000" x1="763" y1="540" x2="763.129" y2="481.036"/>
    <polygon style="fill: #000000" points="763.145,473.536 768.123,483.547 763.129,481.036 758.123,483.525 "/>
    <polygon style="fill: none; fill-opacity:0; stroke-width: 2; stroke: #000000" points="763.145,473.536 768.123,483.547 763.129,481.036 758.123,483.525 "/>
  </g>
  <g>
    <line style="fill: none; fill-opacity:0; stroke-width: 2; stroke: #000000" x1="763" y1="540" x2="1011.82" y2="481.817"/>
    <polygon style="fill: #000000" points="1019.12,480.109 1010.52,487.255 1011.82,481.817 1008.25,477.517 "/>
    <polygon style="fill: none; fill-opacity:0; stroke-width: 2; stroke: #000000" points="1019.12,480.109 1010.52,487.255 1011.82,481.817 1008.25,477.517 "/>
  </g>
  <g>
    <path style="fill: #ffffff" d="M 450 754.667 C 470.4,743.667 480.6,740 501,740 C 521.4,740 531.6,743.667 552,754.667 L 552,813.333 C 531.6,824.333 521.4,828 501,828 C 480.6,828 470.4,824.333 450,813.333 L 450,754.667z"/>
    <path style="fill: none; fill-opacity:0; stroke-width: 2; stroke: #000000" d="M 450 754.667 C 470.4,743.667 480.6,740 501,740 C 521.4,740 531.6,743.667 552,754.667 L 552,813.333 C 531.6,824.333 521.4,828 501,828 C 480.6,828 470.4,824.333 450,813.333 L 450,754.667"/>
    <path style="fill: none; fill-opacity:0; stroke-width: 2; stroke: #000000" d="M 450 754.667 C 470.4,765.667 480.6,769.333 501,769.333 C 521.4,769.333 531.6,765.667 552,754.667"/>
    <text font-size="12.8" style="fill: #000000;text-anchor:middle;font-family:sans-serif;font-style:normal;font-weight:700" x="501" y="789.733">
      <tspan x="501" y="789.733">KAFKA TOPIC</tspan>
      <tspan x="501" y="805.733">D1</tspan>
    </text>
  </g>
  <g>
    <path style="fill: #ffffff" d="M 712.65 753.967 C 733.05,742.967 743.25,739.3 763.65,739.3 C 784.05,739.3 794.25,742.967 814.65,753.967 L 814.65,812.633 C 794.25,823.633 784.05,827.3 763.65,827.3 C 743.25,827.3 733.05,823.633 712.65,812.633 L 712.65,753.967z"/>
    <path style="fill: none; fill-opacity:0; stroke-width: 2; stroke: #000000" d="M 712.65 753.967 C 733.05,742.967 743.25,739.3 763.65,739.3 C 784.05,739.3 794.25,742.967 814.65,753.967 L 814.65,812.633 C 794.25,823.633 784.05,827.3 763.65,827.3 C 743.25,827.3 733.05,823.633 712.65,812.633 L 712.65,753.967"/>
    <path style="fill: none; fill-opacity:0; stroke-width: 2; stroke: #000000" d="M 712.65 753.967 C 733.05,764.967 743.25,768.633 763.65,768.633 C 784.05,768.633 794.25,764.967 814.65,753.967"/>
    <text font-size="12.8" style="fill: #000000;text-anchor:middle;font-family:sans-serif;font-style:normal;font-weight:700" x="763.65" y="789.033">
      <tspan x="763.65" y="789.033">KAFKA TOPIC</tspan>
      <tspan x="763.65" y="805.033">D2</tspan>
    </text>
  </g>
  <g>
    <path style="fill: #ffffff" d="M 966.574 754.267 C 987.864,743.267 998.509,739.6 1019.8,739.6 C 1041.09,739.6 1051.73,743.267 1073.02,754.267 L 1073.02,812.933 C 1051.73,823.933 1041.09,827.6 1019.8,827.6 C 998.509,827.6 987.864,823.933 966.574,812.933 L 966.574,754.267z"/>
    <path style="fill: none; fill-opacity:0; stroke-width: 2; stroke: #000000" d="M 966.574 754.267 C 987.864,743.267 998.509,739.6 1019.8,739.6 C 1041.09,739.6 1051.73,743.267 1073.02,754.267 L 1073.02,812.933 C 1051.73,823.933 1041.09,827.6 1019.8,827.6 C 998.509,827.6 987.864,823.933 966.574,812.933 L 966.574,754.267"/>
    <path style="fill: none; fill-opacity:0; stroke-width: 2; stroke: #000000" d="M 966.574 754.267 C 987.864,765.267 998.509,768.933 1019.8,768.933 C 1041.09,768.933 1051.73,765.267 1073.02,754.267"/>
    <text font-size="12.8" style="fill: #000000;text-anchor:middle;font-family:sans-serif;font-style:normal;font-weight:700" x="1019.8" y="789.333">
      <tspan x="1019.8" y="789.333">KAFKA TOPIC </tspan>
      <tspan x="1019.8" y="805.333">D3</tspan>
    </text>
  </g>
  <g>
    <line style="fill: none; fill-opacity:0; stroke-width: 2; stroke: #000000" x1="760" y1="678.9" x2="510.476" y2="737.765"/>
    <polygon style="fill: #000000" points="503.176,739.487 511.761,732.324 510.476,737.765 514.057,742.057 "/>
    <polygon style="fill: none; fill-opacity:0; stroke-width: 2; stroke: #000000" points="503.176,739.487 511.761,732.324 510.476,737.765 514.057,742.057 "/>
  </g>
  <g>
    <line style="fill: none; fill-opacity:0; stroke-width: 2; stroke: #000000" x1="760" y1="678.9" x2="763.063" y2="729.582"/>
    <polygon style="fill: #000000" points="763.515,737.068 757.921,727.388 763.063,729.582 767.903,726.785 "/>
    <polygon style="fill: none; fill-opacity:0; stroke-width: 2; stroke: #000000" points="763.515,737.068 757.921,727.388 763.063,729.582 767.903,726.785 "/>
  </g>
  <g>
    <line style="fill: none; fill-opacity:0; stroke-width: 2; stroke: #000000" x1="760" y1="678.9" x2="1010.32" y2="737.385"/>
    <polygon style="fill: #000000" points="1017.62,739.091 1006.75,741.685 1010.32,737.385 1009.02,731.947 "/>
    <polygon style="fill: none; fill-opacity:0; stroke-width: 2; stroke: #000000" points="1017.62,739.091 1006.75,741.685 1010.32,737.385 1009.02,731.947 "/>
  </g>
  <g>
    <rect style="fill: #ffffff" x="393.66" y="861.9" width="212.581" height="38"/>
    <rect style="fill: none; fill-opacity:0; stroke-width: 2; stroke: #000000" x="393.66" y="861.9" width="212.581" height="38"/>
    <text font-size="12.8" style="fill: #000000;text-anchor:middle;font-family:sans-serif;font-style:normal;font-weight:700" x="499.95" y="886.6">
      <tspan x="499.95" y="886.6">KAFKA CONSUMER KC-D1</tspan>
    </text>
  </g>
  <g>
    <rect style="fill: #ffffff" x="658.81" y="861.2" width="212.581" height="38"/>
    <rect style="fill: none; fill-opacity:0; stroke-width: 2; stroke: #000000" x="658.81" y="861.2" width="212.581" height="38"/>
    <text font-size="12.8" style="fill: #000000;text-anchor:middle;font-family:sans-serif;font-style:normal;font-weight:700" x="765.1" y="885.9">
      <tspan x="765.1" y="885.9">KAFKA CONSUMER KC-D2</tspan>
    </text>
  </g>
  <g>
    <rect style="fill: #ffffff" x="914.96" y="862.5" width="212.581" height="38"/>
    <rect style="fill: none; fill-opacity:0; stroke-width: 2; stroke: #000000" x="914.96" y="862.5" width="212.581" height="38"/>
    <text font-size="12.8" style="fill: #000000;text-anchor:middle;font-family:sans-serif;font-style:normal;font-weight:700" x="1021.25" y="887.2">
      <tspan x="1021.25" y="887.2">KAFKA CONSUMER KC-D3</tspan>
    </text>
  </g>
  <g>
    <line style="fill: none; fill-opacity:0; stroke-width: 2; stroke: #000000" x1="499.95" y1="861.9" x2="500.699" y2="837.731"/>
    <polygon style="fill: #000000" points="500.931,830.235 505.619,840.385 500.699,837.731 495.624,840.075 "/>
    <polygon style="fill: none; fill-opacity:0; stroke-width: 2; stroke: #000000" points="500.931,830.235 505.619,840.385 500.699,837.731 495.624,840.075 "/>
  </g>
  <g>
    <line style="fill: none; fill-opacity:0; stroke-width: 2; stroke: #000000" x1="765.1" y1="861.2" x2="764.066" y2="837.027"/>
    <polygon style="fill: #000000" points="763.746,829.534 769.168,839.311 764.066,837.027 759.178,839.739 "/>
    <polygon style="fill: none; fill-opacity:0; stroke-width: 2; stroke: #000000" points="763.746,829.534 769.168,839.311 764.066,837.027 759.178,839.739 "/>
  </g>
  <g>
    <line style="fill: none; fill-opacity:0; stroke-width: 2; stroke: #000000" x1="1021.25" y1="862.5" x2="1020.2" y2="837.328"/>
    <polygon style="fill: #000000" points="1019.89,829.834 1025.3,839.618 1020.2,837.328 1015.31,840.033 "/>
    <polygon style="fill: none; fill-opacity:0; stroke-width: 2; stroke: #000000" points="1019.89,829.834 1025.3,839.618 1020.2,837.328 1015.31,840.033 "/>
  </g>
  <g>
    <ellipse style="fill: #ffffff" cx="762.091" cy="609.626" rx="82.0907" ry="68.6259"/>
    <ellipse style="fill: none; fill-opacity:0; stroke-width: 2; stroke: #000000" cx="762.091" cy="609.626" rx="82.0907" ry="68.6259"/>
    <text font-size="12.8016" style="fill: #000000;text-anchor:middle;font-family:sans-serif;font-style:normal;font-weight:700" x="762.091" y="599.323">
      <tspan x="762.091" y="599.323">HGW </tspan>
      <tspan x="762.091" y="615.325">CONSUMED DATA</tspan>
      <tspan x="762.091" y="631.327">DISPATCHER</tspan>
    </text>
  </g>
</svg>
